<?xml version="1.0" encoding="UTF-8"?>
<svg version="1.1" xmlns="http://www.w3.org/2000/svg" width="300" height="100">
<path d="M0 0 C9 0 9 0 12.5 2.375 C15.96236357 6.01048175 16.12431262 7.56206847 16.11352539 12.45947266 C16.11344986 13.60050446 16.11337433 14.74153625 16.11329651 15.91714478 C16.10813522 17.15362762 16.10297394 18.39011047 16.09765625 19.6640625 C16.0962413 20.92640717 16.09482635 22.18875183 16.09336853 23.48934937 C16.08871078 26.84638299 16.07972408 30.203349 16.06866455 33.56036377 C16.0584377 36.98554906 16.05386818 40.41074134 16.04882812 43.8359375 C16.03778238 50.55731043 16.02103194 57.27865131 16 64 C8.328125 64.2109375 8.328125 64.2109375 5.375 62.3125 C4.59125 61.879375 3.8075 61.44625 3 61 C2.154375 61.433125 1.30875 61.86625 0.4375 62.3125 C-5.18010746 65.07023457 -11.3120385 64.9773098 -17.34375 63.37890625 C-22.7644897 61.03339388 -26.02683738 57.01013909 -29 52 C-30.95557511 46.13327468 -31.00552037 39.40494296 -28.5 33.6875 C-25.52032855 28.49710457 -20.62588522 24.87529507 -15 23 C-13.16859259 22.90622311 -11.33380013 22.87007043 -9.5 22.875 C-8.5409375 22.87242188 -7.581875 22.86984375 -6.59375 22.8671875 C-4 23 -4 23 -1 24 C-0.67 16.08 -0.34 8.16 0 0 Z M-14.875 36.5625 C-17.45248068 39.51902195 -18 41.08967888 -18 45 C-16.39588152 48.52906067 -15.25840638 49.82772908 -12 52 C-8.21847911 52.22872102 -4.96298289 51.78242359 -2 49.375 C-0.58780752 46.02104287 -0.54980748 43.60154012 -1 40 C-3.15475621 36.72477055 -4.6641423 36.09770406 -8.4375 35 C-12.0236767 34.71647647 -12.0236767 34.71647647 -14.875 36.5625 Z " fill="#4E3E9F" transform="translate(127,16)"/>
<path d="M0 0 C9.16464758 -0.17786344 9.16464758 -0.17786344 13 3 C16.42086208 7.42699798 16.52970617 11.43398444 16.6875 16.8125 C16.73874023 17.99489258 16.73874023 17.99489258 16.79101562 19.20117188 C16.87299875 21.13363119 16.93818845 23.06679035 17 25 C17.72316406 24.36771484 17.72316406 24.36771484 18.4609375 23.72265625 C19.09257812 23.17480469 19.72421875 22.62695312 20.375 22.0625 C21.00148438 21.51722656 21.62796875 20.97195312 22.2734375 20.41015625 C25.41602031 17.84347662 27.92372511 17.73623843 31.95703125 17.765625 C34.81841526 18.09389085 36.72412174 19.29309131 39 21 C37.34136495 25.32504836 34.128959 28.09418825 30.875 31.25 C30.03001953 32.08144531 30.03001953 32.08144531 29.16796875 32.9296875 C27.78313972 34.29104485 26.39216796 35.64614859 25 37 C26.45009686 40.33121544 28.27477676 42.52056562 30.84375 45.07421875 C31.97103516 46.19860352 31.97103516 46.19860352 33.12109375 47.34570312 C34.29865234 48.50489258 34.29865234 48.50489258 35.5 49.6875 C36.28503906 50.47189453 37.07007813 51.25628906 37.87890625 52.06445312 C41.59448109 55.99336987 41.59448109 55.99336987 46 59 C44.25 62.875 44.25 62.875 42 64 C37.33365755 64.69130999 32.87559653 65.10554753 28.70703125 62.6484375 C26.67091788 60.86043853 24.83002173 58.9974747 23 57 C21.83625135 55.85120315 20.66985116 54.7050819 19.5 53.5625 C18.675 52.716875 17.85 51.87125 17 51 C16.67 55.29 16.34 59.58 16 64 C9.90793639 64.42014232 6.88058567 64.06715472 2 60 C-0.27121709 56.59317436 -0.24468887 55.42202816 -0.22705078 51.42700195 C-0.22689972 50.28604568 -0.22674866 49.14508942 -0.22659302 47.96955872 C-0.21627045 46.73823715 -0.20594788 45.50691559 -0.1953125 44.23828125 C-0.1924826 42.97735153 -0.18965271 41.71642181 -0.18673706 40.4172821 C-0.17743125 37.06839578 -0.15946703 33.71978209 -0.1373291 30.37097168 C-0.11685386 26.95241653 -0.10773176 23.5338332 -0.09765625 20.11523438 C-0.0755818 13.41008081 -0.04209362 6.70505615 0 0 Z " fill="#4F3F9F" transform="translate(8,16)"/>
<path d="M0 0 C1.8085144 0.00749268 1.8085144 0.00749268 3.65356445 0.01513672 C5.17425537 0.03334473 6.69494629 0.05155273 8.26171875 0.0703125 C15.53203125 0.1321875 15.53203125 0.1321875 22.94921875 0.1953125 C22.94921875 13.7253125 22.94921875 27.2553125 22.94921875 41.1953125 C14.94921875 41.1953125 14.94921875 41.1953125 11.94921875 39.1953125 C9.10801641 39.55046279 6.66874123 40.28880501 3.94921875 41.1953125 C-2.98655671 41.9145781 -8.62702111 41.92009909 -14.3671875 37.68359375 C-19.82245534 32.86118761 -22.59457997 28.22509043 -23.42578125 20.8828125 C-22.76300162 14.36547946 -20.53932786 9.16759221 -15.61328125 4.7578125 C-10.71453735 0.76834821 -6.25201306 -0.05320862 0 0 Z M-9.05078125 15.1953125 C-10.57924786 18.25224572 -10.2832057 20.82515797 -10.05078125 24.1953125 C-9.21744792 26.6953125 -9.21744792 26.6953125 -7.05078125 28.1953125 C-4.33374061 29.10099271 -1.90768884 29.42364235 0.94921875 29.1953125 C4.51334626 27.29949999 5.64912038 26.07685147 6.94921875 22.2578125 C6.94921875 18.59239109 6.18100523 17.06475227 3.94921875 14.1953125 C-1.07282765 10.84728157 -4.27973515 11.74955699 -9.05078125 15.1953125 Z " fill="#4F40A0" transform="translate(237.05078125,38.8046875)"/>
<path d="M0 0 C4.87040647 0.65342936 7.38064196 1.58746242 11 5 C12.20437899 7.40875799 12.23338248 9.17876622 12.39453125 11.8671875 C12.46349609 12.83527344 12.53246094 13.80335937 12.60351562 14.80078125 C12.74225805 16.84172126 12.86995932 18.8834434 12.98632812 20.92578125 C13.3416026 26.6573376 13.3416026 26.6573376 15.88671875 31.6640625 C18.82894582 33.5240286 20.58549825 33.56908362 24 33 C26.84780619 30.76793569 27.84997666 29.45007001 29 26 C29.14715199 24.37432921 29.24721867 22.74413143 29.31640625 21.11328125 C29.35830078 20.17548828 29.40019531 19.23769531 29.44335938 18.27148438 C29.48267578 17.29501953 29.52199219 16.31855469 29.5625 15.3125 C29.60568359 14.32443359 29.64886719 13.33636719 29.69335938 12.31835938 C29.79941542 9.87907028 29.90020974 7.43955346 30 5 C35.28 5 40.56 5 46 5 C46 18.53 46 32.06 46 46 C38 46 38 46 35 44 C32.15879766 44.35515029 29.71952248 45.09349251 27 46 C19.53517235 46.66572293 14.0052022 46.68405772 8 42 C3.36948412 37.46617703 0.22846089 33.3421618 -0.22705078 26.6784668 C-0.21657715 25.44781494 -0.20610352 24.21716309 -0.1953125 22.94921875 C-0.1924826 22.29041214 -0.18965271 21.63160553 -0.18673706 20.95283508 C-0.17560924 18.86419938 -0.15051948 16.77600444 -0.125 14.6875 C-0.11496059 13.26498018 -0.10583642 11.8424536 -0.09765625 10.41992188 C-0.07569447 6.94647319 -0.04121646 3.47327967 0 0 Z " fill="#5142A1" transform="translate(146,34)"/>
<path d="M0 0 C5.41236375 2.36137878 8.67456949 6.37148475 11.6484375 11.3828125 C13.60401261 17.24953782 13.65395787 23.97786954 11.1484375 29.6953125 C8.16876605 34.88570793 3.27432272 38.50751743 -2.3515625 40.3828125 C-9.28733796 41.1020781 -14.92780236 41.10759909 -20.66796875 36.87109375 C-26.12808885 32.04439826 -28.98017362 27.39381245 -29.6640625 20.0078125 C-29.08620162 13.30462631 -27.49077905 9.06456739 -22.4140625 4.5078125 C-15.61877912 -1.12219108 -8.65659683 -2.27199718 0 0 Z M-15.3515625 14.3828125 C-16.92091844 17.52152438 -16.70357353 19.92137072 -16.3515625 23.3828125 C-13.90155803 26.76958339 -12.48763804 28.16979834 -8.3515625 28.9453125 C-4.58164455 28.23845288 -2.94738158 27.20113035 -0.3515625 24.3828125 C0.88518001 20.74988136 0.99301953 19.14089297 -0.6015625 15.6328125 C-2.69258354 12.94435687 -4.29119239 11.52233488 -7.7265625 11.0703125 C-10.92661215 11.45127079 -12.75494226 12.50747566 -15.3515625 14.3828125 Z " fill="#5545A2" transform="translate(81.3515625,39.6171875)"/>
<path d="M0 0 C1.42784678 -0.06112067 2.85645701 -0.10456047 4.28515625 -0.140625 C5.08058838 -0.16672852 5.87602051 -0.19283203 6.69555664 -0.21972656 C10.70322776 0.16240121 12.29892533 2.10128572 15 5 C17.02537583 8.23069856 17.24440341 10.72005739 17.22705078 14.50292969 C17.22689972 15.60376892 17.22674866 16.70460815 17.22659302 17.83880615 C17.21627045 19.02121887 17.20594788 20.20363159 17.1953125 21.421875 C17.1924826 22.63699768 17.18965271 23.85212036 17.18673706 25.10406494 C17.17553954 28.98614335 17.15043534 32.86799129 17.125 36.75 C17.11496966 39.38150709 17.10584391 42.01301779 17.09765625 44.64453125 C17.07560157 51.09643284 17.04212804 57.54819995 17 64 C15.54962858 64.03264604 14.0990464 64.05602704 12.6484375 64.07543945 C11.84067871 64.0894429 11.03291992 64.10344635 10.20068359 64.11787415 C7.345944 63.96496712 6.02107704 63.18428525 4 61.1875 C3.1646875 60.40439453 3.1646875 60.40439453 2.3125 59.60546875 C-0.234903 56.48944901 -0.12233104 53.45866629 -0.11352539 49.6105957 C-0.11344986 48.50968094 -0.11337433 47.40876617 -0.11329651 46.27449036 C-0.10813522 45.08691635 -0.10297394 43.89934235 -0.09765625 42.67578125 C-0.0962413 41.45924362 -0.09482635 40.24270599 -0.09336853 38.98930359 C-0.08776312 35.0970109 -0.07520967 31.20477536 -0.0625 27.3125 C-0.0574857 24.67643312 -0.05292267 22.04036534 -0.04882812 19.40429688 C-0.03779193 12.93617836 -0.0210485 6.46809326 0 0 Z " fill="#4F40A0" transform="translate(195,16)"/>
<path d="M0 0 C1.17369141 0.11794922 1.17369141 0.11794922 2.37109375 0.23828125 C4.5625 0.6875 4.5625 0.6875 7.5625 2.6875 C6.86501621 6.75151982 5.14154197 7.87788319 1.90112305 10.34301758 C-2.55945584 13.90804537 -5.85864186 17.11749736 -7.14697266 22.83740234 C-7.95942923 30.44127179 -7.83809534 38.0591056 -7.4375 45.6875 C-8.86534678 45.74862067 -10.29395701 45.79206047 -11.72265625 45.828125 C-12.51808838 45.85422852 -13.31352051 45.88033203 -14.13305664 45.90722656 C-18.14072776 45.52509879 -19.73642533 43.58621428 -22.4375 40.6875 C-24.90194124 37.01652032 -24.6672369 33.63434914 -24.6328125 29.296875 C-24.6299826 28.59226135 -24.62715271 27.88764771 -24.62423706 27.16168213 C-24.61307801 24.9201124 -24.58798193 22.67894814 -24.5625 20.4375 C-24.55246464 18.91406829 -24.54333976 17.39063029 -24.53515625 15.8671875 C-24.51315291 12.14049414 -24.47865272 8.41403667 -24.4375 4.6875 C-16.703125 4.5859375 -16.703125 4.5859375 -14.3125 5.5 C-12.03660823 5.94262495 -12.03660823 5.94262495 -9.3125 3.3125 C-8.36375 2.44625 -7.415 1.58 -6.4375 0.6875 C-3.97648622 -0.54300689 -2.71323817 -0.29850075 0 0 Z " fill="#5343A1" transform="translate(287.4375,34.3125)"/>
</svg>
