<?xml version="1.0" encoding="UTF-8"?>
<svg version="1.1" xmlns="http://www.w3.org/2000/svg" width="3000" height="2000">
<path d="M0 0 C0.88179932 0.26546631 1.76359863 0.53093262 2.67211914 0.80444336 C5.71990872 1.743045 8.75057041 2.72632608 11.78125 3.71875 C12.92182358 4.088293 14.06239716 4.457836 15.23753357 4.83857727 C18.34311228 5.84511552 21.44756712 6.85503854 24.5516777 7.86609268 C29.89875432 9.60582076 35.24940783 11.33454603 40.59971428 13.06431007 C41.97851716 13.51008895 43.35727687 13.95600135 44.73599434 14.4020443 C57.63799922 18.57536919 70.56462031 22.66797104 83.50125122 26.73272705 C105.64576153 33.69119972 127.75328771 40.75847048 149.83766556 47.90508652 C152.02188539 48.6118579 154.2062301 49.31824219 156.39059448 50.02456665 C159.86822511 51.14930613 163.34538902 52.27547801 166.82220078 53.4027462 C168.6707807 54.00198625 170.51960182 54.6004821 172.36843872 55.19892883 C184.26966514 59.06334992 196.12786365 63.04262122 208 67 C208 265.66 208 464.32 208 669 C187.34599982 675.88466673 187.34599982 675.88466673 179.51953125 678.19921875 C178.6084964 678.47140228 177.69746155 678.74358582 176.75881958 679.02401733 C174.80131948 679.60855503 172.84344673 680.19184609 170.88522339 680.7739563 C166.54626955 682.06395981 162.20934276 683.36072138 157.87226868 684.6570282 C155.53648893 685.35516329 153.20062114 686.05300387 150.8646698 686.75056458 C137.86346538 690.63426117 124.87315163 694.55395202 111.88323212 698.47519302 C108.62747369 699.45792319 105.37159859 700.44026663 102.11572266 701.42260742 C101.4598712 701.62048701 100.80401974 701.8183666 100.12829399 702.02224255 C98.78844258 702.4264928 97.44859056 702.83074102 96.10873795 703.23498726 C94.06636922 703.85120316 92.02401335 704.46746166 89.98165894 705.08372498 C73.19947891 710.14743078 56.41557243 715.20540905 39.63167191 720.26340866 C36.41275404 721.23348242 33.19385859 722.20363053 29.97496223 723.17377567 C26.94154108 724.08800458 23.90810191 725.00217369 20.87465668 725.91632271 C19.46951479 726.33977943 18.06437848 726.76325465 16.65924835 727.18675041 C13.52778822 728.13053497 10.39587522 729.07192405 7.25985718 730.00048828 C5.22018873 730.62587535 3.19162172 731.29026389 1.18374634 732.01123047 C-4.92119789 734.15143879 -8.89146299 734.06986076 -15 732 C-15.8234491 731.72852142 -16.64689819 731.45704285 -17.49530029 731.17733765 C-20.29229171 730.21595069 -23.0638539 729.19892155 -25.8359375 728.16796875 C-26.88289291 727.78420578 -27.92984833 727.40044281 -29.00852966 727.00505066 C-31.27597227 726.17351167 -33.54251932 725.33952741 -35.80825806 724.50335693 C-41.34183945 722.4618856 -46.88123098 720.43631252 -52.42088509 718.41139221 C-53.71128196 717.9396677 -55.00160906 717.46775232 -56.29186821 716.99565125 C-70.76721444 711.6998807 -85.28591935 706.52853871 -99.8125 701.375 C-104.76582871 699.61645869 -109.71893087 697.85728044 -114.671875 696.09765625 C-115.87945969 695.66866028 -117.08704437 695.23966431 -118.33122253 694.79766846 C-130.4195367 690.50041282 -142.49318014 686.16277633 -154.5625 681.8125 C-155.58290375 681.44472443 -156.6033075 681.07694885 -157.65463257 680.69802856 C-162.75552078 678.8592782 -167.85611234 677.0197067 -172.95654297 675.1796875 C-183.01106168 671.55275664 -193.06811222 667.93285534 -203.125 664.3125 C-204.64623978 663.76480957 -204.64623978 663.76480957 -206.19821167 663.20605469 C-223.49633677 656.97830057 -240.79716129 650.75806716 -258.09897614 644.54057312 C-260.12472959 643.81259718 -262.1504709 643.08458745 -264.1762085 642.35656738 C-277.97530285 637.39740181 -291.77479188 632.43934113 -305.57580566 627.48551941 C-331.35439783 618.23237727 -357.13209207 608.97709818 -382.875 599.625 C-384.27933289 599.1153923 -384.27933289 599.1153923 -385.71203613 598.5954895 C-388.28509191 597.66139595 -390.85751904 596.72559621 -393.4296875 595.7890625 C-394.1783609 595.51735733 -394.9270343 595.24565216 -395.69839478 594.9657135 C-400.76892933 593.11553534 -400.76892933 593.11553534 -403 592 C-403 444.16 -403 296.32 -403 144 C-382.32990506 135.96162975 -382.32990506 135.96162975 -374.796875 133.1953125 C-373.92710022 132.87436615 -373.05732544 132.5534198 -372.16119385 132.2227478 C-369.35799347 131.18871843 -366.55400005 130.15685865 -363.75 129.125 C-361.73561515 128.38232941 -359.72129367 127.63948694 -357.70703125 126.89648438 C-353.53865423 125.359041 -349.37001068 123.82232358 -345.20117188 122.28613281 C-336.41417525 119.04753612 -327.63053264 115.79987023 -318.84680176 112.5524292 C-314.06468787 110.78453782 -309.28233104 109.01730386 -304.5 107.25 C-302.58333218 106.54166978 -300.66666552 105.83333645 -298.75 105.125 C-233.58333333 81.04166667 -168.41666667 56.95833333 -103.25 32.875 C-102.30144135 32.5244455 -101.35288269 32.17389099 -100.37557983 31.81271362 C-98.45698096 31.10366666 -96.53838151 30.39462125 -94.61978149 29.68557739 C-89.85767286 27.92567536 -85.09557391 26.16574713 -80.33349609 24.40576172 C-71.35607076 21.08788538 -62.37854338 17.77028587 -53.4006958 14.45355225 C-49.16260226 12.88783367 -44.92456084 11.32197405 -40.68652344 9.75610352 C-38.66734377 9.01010197 -36.64813861 8.26416944 -34.62890625 7.51831055 C-31.82806027 6.48373631 -29.02730248 5.44892365 -26.2265625 4.4140625 C-25.40781647 4.11170685 -24.58907043 3.8093512 -23.74551392 3.49783325 C-22.58491959 3.06892288 -22.58491959 3.06892288 -21.40087891 2.63134766 C-20.65799622 2.36332336 -19.91511353 2.09529907 -19.14971924 1.81915283 C-16.99806275 1.02897631 -16.99806275 1.02897631 -14.96697998 0.05145264 C-9.37939856 -2.45821647 -5.74081635 -1.82732618 0 0 Z M-20.6418457 121.9140625 C-21.96322666 122.22274686 -21.96322666 122.22274686 -23.31130219 122.53766727 C-26.26712454 123.2292687 -29.22142262 123.92717456 -32.17578125 124.625 C-34.28739625 125.12031211 -36.3991082 125.61521103 -38.51091003 126.10972595 C-43.05799989 127.1753553 -47.60443824 128.24370719 -52.15039062 129.31417847 C-59.35835133 131.0114326 -66.56770197 132.70272523 -73.77734375 134.39282227 C-81.26603152 136.14855757 -88.7546572 137.90455335 -96.24282837 139.66249084 C-121.2385656 145.5300739 -146.24335196 151.35858839 -171.24972153 157.18066406 C-176.50553529 158.4044942 -181.76118574 159.6290252 -187.0168457 160.85351562 C-191.02163816 161.78649688 -195.026441 162.71943351 -199.03125 163.65234375 C-199.8907897 163.85257582 -200.7503294 164.05280788 -201.63591576 164.25910759 C-222.75589229 169.17869354 -243.87826425 174.08796843 -265 179 C-265 295.49 -265 411.98 -265 532 C-267.97 532.99 -270.94 533.98 -274 535 C-276.4854888 536.03210143 -278.9351812 537.08279821 -281.3828125 538.1953125 C-282.06227432 538.49963196 -282.74173615 538.80395142 -283.44178772 539.11749268 C-284.90546104 539.77338904 -286.36831619 540.43111378 -287.83041382 541.09051514 C-291.83968634 542.89804443 -295.85572065 544.69044905 -299.87109375 546.484375 C-300.70629044 546.85787079 -301.54148712 547.23136658 -302.4019928 547.61618042 C-311.30561195 551.59304162 -320.24428162 555.4882096 -329.1875 559.375 C-332.42333471 560.78218988 -335.65898947 562.18979296 -338.89453125 563.59765625 C-340.11286148 564.1277404 -340.11286148 564.1277404 -341.35580444 564.66853333 C-351.37146024 569.02873125 -361.37346656 573.42002792 -371.375 577.8125 C-372.25135101 578.19726501 -373.12770203 578.58203003 -374.03060913 578.97845459 C-376.52835076 580.07517953 -379.02593581 581.17226003 -381.5234375 582.26953125 C-382.61316109 582.74814857 -382.61316109 582.74814857 -383.72489929 583.23643494 C-388.8226866 585.47731583 -393.91284448 587.73509284 -399 590 C-396.34543153 592.65456847 -394.66642108 592.50027474 -390.95490742 592.94608402 C-389.65738586 593.10620222 -388.3598643 593.26632042 -387.0230239 593.43129069 C-385.56934802 593.60173412 -384.1156532 593.77201602 -382.66194153 593.94215393 C-381.12814076 594.1280446 -379.59443185 594.31469461 -378.06080836 594.50204223 C-373.83101366 595.01649281 -369.59998143 595.52005238 -365.3686763 596.02190673 C-360.81071094 596.56440198 -356.25395193 597.11685652 -351.69703674 597.66809082 C-342.76024066 598.74752869 -333.82235568 599.81768095 -324.88407627 600.88475866 C-314.47163074 602.12817479 -304.06028717 603.38069951 -293.64898141 604.63361716 C-275.06118883 606.87019152 -256.47240624 609.09842879 -237.88305664 611.32202148 C-219.85856058 613.4780557 -201.83477542 615.63990945 -183.81176758 617.80834961 C-182.70363773 617.94167356 -181.59550788 618.07499751 -180.45379833 618.21236158 C-179.34756328 618.34545832 -178.24132823 618.47855507 -177.1015709 618.61568505 C-156.58052707 621.08463981 -136.05885932 623.54837269 -115.53687767 626.00951942 C-108.28714658 626.87906931 -101.03759473 627.75010372 -93.78809547 628.62158394 C-84.93778498 629.68538614 -76.08711377 630.7461311 -67.23599235 631.80316562 C-62.72361507 632.34210359 -58.21139074 632.88224079 -53.6995697 633.42581749 C-49.55987293 633.92451438 -45.41974755 634.41948663 -41.27926608 634.91162466 C-39.79034609 635.08922546 -38.30157908 635.26811519 -36.8129947 635.44850726 C-34.76942657 635.69594034 -32.72531827 635.93837764 -30.68102741 636.17975712 C-28.9870125 636.3826103 -28.9870125 636.3826103 -27.25877506 636.58956152 C-20.85167665 637.20704417 -14.42252805 637.57183146 -8 638 C-8 467.06 -8 296.12 -8 120 C-12.43573809 120 -16.35969532 120.89557775 -20.6418457 121.9140625 Z " fill="#EB3B00" transform="translate(749,634)"/>
<path d="M0 0 C1.31738159 -0.01058945 1.31738159 -0.01058945 2.66137695 -0.02139282 C39.81031828 -0.25222072 39.81031828 -0.25222072 56.42578125 3.203125 C57.87791016 3.50114014 57.87791016 3.50114014 59.359375 3.80517578 C73.64540368 6.8420943 87.11786379 11.1980884 100.42578125 17.203125 C101.50013428 17.68652344 101.50013428 17.68652344 102.59619141 18.1796875 C121.45525515 26.81300628 137.28117804 39.12575893 152.42578125 53.203125 C153.42351562 54.11964844 153.42351562 54.11964844 154.44140625 55.0546875 C160.33206488 60.68194269 165.23253063 67.05787577 170.14892578 73.52929688 C171.24645339 74.96804435 172.36356504 76.39181489 173.484375 77.8125 C214.26006592 131.04978461 220.72137968 204.35898799 212.359375 268.734375 C208.59218195 295.72515751 201.61624864 321.76256588 189.42578125 346.203125 C189.08015137 346.90002441 188.73452148 347.59692383 188.37841797 348.31494141 C165.9162498 393.12088587 127.12610425 427.04475842 79.80078125 443.328125 C25.76841417 461.17568019 -39.05927992 459.26349976 -90.61816406 434.34008789 C-108.16658632 425.47389941 -123.40554683 413.72776638 -137.57421875 400.203125 C-138.42757813 399.40261719 -139.2809375 398.60210938 -140.16015625 397.77734375 C-147.04528688 391.14198915 -152.85914853 383.84095772 -158.57421875 376.203125 C-159.20070313 375.37167969 -159.8271875 374.54023437 -160.47265625 373.68359375 C-199.51979464 319.87920353 -207.51014427 247.7750589 -198.07910156 183.36865234 C-196.62005911 174.22071017 -194.79189537 165.19677304 -192.57421875 156.203125 C-192.3539502 155.3069043 -192.13368164 154.41068359 -191.90673828 153.48730469 C-182.4738962 116.07104948 -163.89468586 84.16147935 -137.57421875 56.203125 C-136.53201172 55.06230469 -136.53201172 55.06230469 -135.46875 53.8984375 C-124.93371505 42.77246249 -111.8485297 33.7446131 -98.57421875 26.203125 C-97.45273438 25.54957031 -96.33125 24.89601563 -95.17578125 24.22265625 C-66.90639522 8.14927993 -32.43905307 0.17495885 0 0 Z M-39.57421875 54.203125 C-40.19925293 54.40244629 -40.82428711 54.60176758 -41.46826172 54.80712891 C-72.20895443 64.82774618 -97.96336373 86.28028788 -115.57421875 113.203125 C-116.16855713 114.10297119 -116.16855713 114.10297119 -116.77490234 115.02099609 C-128.94826887 133.68949766 -136.70753035 154.53983007 -141.32421875 176.265625 C-141.52297607 177.19777832 -141.7217334 178.12993164 -141.92651367 179.09033203 C-145.15659901 195.17014821 -145.95056039 210.96759472 -145.88671875 227.328125 C-145.8845636 228.32235474 -145.88240845 229.31658447 -145.88018799 230.34094238 C-145.82985113 244.80944388 -145.53181764 258.98977987 -142.57421875 273.203125 C-142.37022461 274.20601562 -142.16623047 275.20890625 -141.95605469 276.2421875 C-133.21879539 318.05893941 -112.81711652 358.85951946 -76.453125 383.38671875 C-39.0777041 406.96822583 3.51053461 412.22037883 46.43505859 402.9375 C84.02925898 394.23262003 114.36777195 371.06493377 134.73828125 338.5625 C150.02055872 313.27451907 156.53013651 284.30954607 159.42578125 255.203125 C159.62300781 253.24246094 159.62300781 253.24246094 159.82421875 251.2421875 C163.32973103 208.32334797 158.44926029 163.15415037 139.42578125 124.203125 C138.85988281 123.04167969 138.29398438 121.88023437 137.7109375 120.68359375 C121.52093517 89.17975392 93.77934905 65.36008635 60.12182617 54.5065918 C28.08763722 44.55973029 -7.51634235 43.8925237 -39.57421875 54.203125 Z " fill="#EB3B00" transform="translate(1371.57421875,774.796875)"/>
<path d="M0 0 C1.15483887 0.17631958 1.15483887 0.17631958 2.33300781 0.35620117 C7.39000023 1.22742455 10.69225712 2.54668162 15.6875 4.6875 C15.6875 19.8675 15.6875 35.0475 15.6875 50.6875 C12.68396586 49.68632195 9.68034655 48.68503169 6.6875 47.65234375 C5.2025 47.14380859 5.2025 47.14380859 3.6875 46.625 C2.6975 46.28339844 1.7075 45.94179688 0.6875 45.58984375 C-15.09795594 40.84187458 -32.75801672 42.97978443 -47.25390625 50.40625 C-49.35811873 51.60744003 -49.35811873 51.60744003 -50.96484375 53.34375 C-52.3125 54.6875 -52.3125 54.6875 -54.3125 54.6875 C-54.58449219 55.26886719 -54.85648438 55.85023438 -55.13671875 56.44921875 C-56.29910997 58.66201001 -57.63056507 60.50084826 -59.125 62.5 C-76.20245415 87.92828748 -69.90005101 130.94056041 -70.3125 155.6875 C-30.3825 155.6875 9.5475 155.6875 50.6875 155.6875 C50.56951899 136.18395131 50.56951899 136.18395131 50.41723633 116.68066406 C50.24891853 84.63267352 54.26961536 54.24419342 76.6875 29.6875 C77.33460938 28.97078125 77.98171875 28.2540625 78.6484375 27.515625 C96.36396135 8.86009376 120.95881322 -0.50007876 146.3359375 -1.53125 C154.99742715 -1.7537314 163.43294881 -1.31651765 172 0 C172.76981201 0.11754639 173.53962402 0.23509277 174.33276367 0.35620117 C179.38988436 1.22735074 182.69215531 2.54663799 187.6875 4.6875 C187.6875 19.8675 187.6875 35.0475 187.6875 50.6875 C184.68396586 49.68632195 181.68034655 48.68503169 178.6875 47.65234375 C177.6975 47.31332031 176.7075 46.97429688 175.6875 46.625 C174.2025 46.11259766 174.2025 46.11259766 172.6875 45.58984375 C158.12087631 41.20847647 141.27797905 42.72406583 127.5 48.8125 C117.08580957 54.44585823 110.59360071 63.46885507 107.06640625 74.65771484 C103.61799808 86.61726769 102.53660859 97.98850065 102.37109375 110.375 C102.34311707 112.10266602 102.34311707 112.10266602 102.3145752 113.86523438 C102.2466332 118.13925004 102.18625837 122.41338331 102.125 126.6875 C101.980625 136.2575 101.83625 145.8275 101.6875 155.6875 C125.7775 155.6875 149.8675 155.6875 174.6875 155.6875 C174.6875 170.2075 174.6875 184.7275 174.6875 199.6875 C150.5975 199.6875 126.5075 199.6875 101.6875 199.6875 C101.6875 289.1175 101.6875 378.5475 101.6875 470.6875 C84.8575 470.6875 68.0275 470.6875 50.6875 470.6875 C50.6875 381.2575 50.6875 291.8275 50.6875 199.6875 C10.7575 199.6875 -29.1725 199.6875 -70.3125 199.6875 C-70.3125 289.1175 -70.3125 378.5475 -70.3125 470.6875 C-87.1425 470.6875 -103.9725 470.6875 -121.3125 470.6875 C-121.3125 381.2575 -121.3125 291.8275 -121.3125 199.6875 C-138.8025 199.6875 -156.2925 199.6875 -174.3125 199.6875 C-174.3125 185.1675 -174.3125 170.6475 -174.3125 155.6875 C-156.8225 155.6875 -139.3325 155.6875 -121.3125 155.6875 C-121.34730469 151.36011719 -121.38210938 147.03273438 -121.41796875 142.57421875 C-121.43733823 139.06641646 -121.45357929 135.55862982 -121.46775055 132.05080414 C-121.4834206 128.37953999 -121.50426133 124.70849258 -121.53881836 121.03735352 C-121.89724424 81.88526441 -121.89724424 81.88526441 -115.625 64.4375 C-115.24371948 63.34393188 -115.24371948 63.34393188 -114.85473633 62.22827148 C-110.38797754 49.91894849 -104.16633419 39.37947684 -95.3125 29.6875 C-94.61511719 28.90890625 -93.91773438 28.1303125 -93.19921875 27.328125 C-69.32227972 2.0107125 -33.38537788 -5.12586892 0 0 Z " fill="#EB3B00" transform="translate(1790.3125,751.3125)"/>
<path d="M0 0 C1.0415625 0.35707031 2.083125 0.71414063 3.15625 1.08203125 C32.63556405 12.29526495 52.43329635 36.72763537 65.1875 64.6875 C79.16255065 98.80991533 78 131.85270201 78 169 C5.07 169 -67.86 169 -143 169 C-138.84300447 203.64162939 -133.29081282 233.2672127 -106 257 C-82.17911457 275.44508101 -51.21185285 279.40581146 -22.00073242 276.05444336 C5.3197221 272.46248784 30.01616551 261.11629619 52.125 245 C55 243 55 243 57 243 C57.35665422 249.66950332 57.60076242 256.33653618 57.76904297 263.01342773 C57.83921127 265.28096343 57.93458596 267.54787078 58.05615234 269.81323242 C59.00980953 288.04892084 59.00980953 288.04892084 55.72772217 292.86813354 C52.03047371 296.39026117 47.70126693 298.15385903 43 300 C41.38436686 300.86250697 39.7759014 301.73878229 38.1796875 302.63671875 C36.7517701 303.33477203 35.31676559 304.01851685 33.875 304.6875 C32.68559814 305.24183716 32.68559814 305.24183716 31.47216797 305.80737305 C-10.06528772 324.54610551 -66.1094544 328.09148279 -109.02734375 312.2109375 C-142.32662193 299.11601465 -166.69329181 274.66897905 -181 242 C-188.62171525 224.17119515 -193.12990088 205.28811538 -195 186 C-195.16628906 184.33130859 -195.16628906 184.33130859 -195.3359375 182.62890625 C-198.9258771 139.11301677 -193.76120896 91.58201529 -168 55 C-167.32324219 54.03835938 -166.64648438 53.07671875 -165.94921875 52.0859375 C-143.82965243 21.6764449 -113.20878605 0.02988414 -75.78125 -6.45703125 C-50.15900543 -10.13625852 -24.51162774 -8.43220252 0 0 Z M-88 43 C-88.89847656 43.41894531 -89.79695313 43.83789062 -90.72265625 44.26953125 C-113.18671671 55.48540029 -128.8239468 78.10329301 -136.6875 101.4375 C-140.61101457 113.49375293 -140.61101457 113.49375293 -142 126 C-86.56 126 -31.12 126 26 126 C26 102.06572226 21.47445167 77.38307717 5 59 C4.28328125 58.17886719 3.5665625 57.35773438 2.828125 56.51171875 C-10.80249416 41.83430368 -28.75228157 36.06328353 -48.40234375 34.77734375 C-62.2731985 34.41190313 -75.54013841 36.83192667 -88 43 Z " fill="#EB3B00" transform="translate(2576,908)"/>
<path d="M0 0 C0 17.49 0 34.98 0 53 C-4.62 50.36 -9.24 47.72 -14 45 C-42.20770957 30.00671293 -74.28714606 24.12938596 -105.49560547 32.68408203 C-122.55566605 37.91646367 -136.5044785 46.34630734 -149 59 C-149.88558594 59.886875 -150.77117188 60.77375 -151.68359375 61.6875 C-169.78060098 80.6383995 -178.32747105 105.54911758 -182 131 C-182.13277344 131.91652344 -182.26554687 132.83304688 -182.40234375 133.77734375 C-186.46856059 169.03645689 -179.941216 206.70859373 -157.7109375 234.9921875 C-155.98434297 237.08445904 -155.98434297 237.08445904 -153.7890625 239.1328125 C-152 241 -152 241 -152 243 C-151.40960937 243.26554687 -150.81921875 243.53109375 -150.2109375 243.8046875 C-147.94283948 245.03090304 -146.46647902 246.33351588 -144.625 248.125 C-128.91953168 262.11131687 -105.78841623 269.31302648 -85 270 C-83.9378125 270.03996094 -82.875625 270.07992188 -81.78125 270.12109375 C-54.55641121 270.64228999 -28.33710169 262.59550593 -6.27734375 246.49609375 C-4.07755749 245.05095115 -2.52842978 244.55327055 0 244 C0.25397215 250.72525156 0.42882941 257.44926505 0.54931641 264.17822266 C0.59954658 266.46580199 0.66774792 268.75306119 0.75439453 271.03955078 C0.87601382 274.33185657 0.93246228 277.61991743 0.9765625 280.9140625 C1.05398178 282.44252304 1.05398178 282.44252304 1.13296509 284.00186157 C1.13530666 286.97968235 1.02731228 289.20073431 0 292 C-3.0240237 294.74708799 -6.27531962 296.37735396 -10 298 C-10.74282227 298.35348007 -11.48564453 298.70696014 -12.25097656 299.07115173 C-14.16491016 299.9730999 -16.09752903 300.77833081 -18.0625 301.5625 C-19.14640015 301.99900879 -19.14640015 301.99900879 -20.25219727 302.44433594 C-61.09156786 318.51663288 -110.38712431 319.31941491 -151 302 C-162.71444575 296.6630462 -173.22230476 290.37904854 -183 282 C-184.00289062 281.14792969 -185.00578125 280.29585937 -186.0390625 279.41796875 C-216.64972788 252.75070632 -232.44773092 214.96814471 -236 175 C-236.14222752 172.20505576 -236.18584271 169.41545346 -236.203125 166.6171875 C-236.21013931 165.8485437 -236.21715363 165.0798999 -236.22438049 164.28796387 C-236.2417921 161.81691556 -236.2482342 159.34610743 -236.25 156.875 C-236.25067474 156.02818665 -236.25134949 155.18137329 -236.25204468 154.30889893 C-236.19312493 107.68740905 -222.79167105 63.97634125 -190 30 C-189.21109375 29.14792969 -188.4221875 28.29585937 -187.609375 27.41796875 C-142.493101 -20.0138756 -57.30687245 -28.65343623 0 0 Z " fill="#EB3B00" transform="translate(2348,915)"/>
<path d="M0 0 C16.83 0 33.66 0 51 0 C51 103.95 51 207.9 51 315 C34.17 315 17.34 315 0 315 C0 211.05 0 107.1 0 0 Z " fill="#EB3C00" transform="translate(2012,907)"/>
<path d="M0 0 C7.28711527 5.1900194 13.36108442 11.94539709 15 21 C15.80423695 32.20658039 15.08560228 41.26856439 7.8125 50.25 C0.25318849 58.21225989 -7.54225876 61.83379872 -18.4375 62.3125 C-28.17510523 62.02460558 -37.01341082 58.16079317 -43.7890625 51.1484375 C-51.12530661 42.07751497 -52.06355551 32.43016552 -51 21 C-49.13870854 12.39591684 -43.84065405 5.33043357 -36.62109375 0.36328125 C-25.86966322 -5.8183485 -10.79299384 -6.67510943 0 0 Z " fill="#EB3B00" transform="translate(2056,767)"/>
</svg>
