<?xml version="1.0" encoding="UTF-8"?>
<svg version="1.1" xmlns="http://www.w3.org/2000/svg" width="180" height="98">
<path d="M0 0 C6.4659825 5.92103746 11.63475508 13.03087075 12.74609375 21.8828125 C12.84534703 28.58240909 11.81030931 33.42249412 8.41015625 39.20703125 C8.02085937 39.87347656 7.6315625 40.53992188 7.23046875 41.2265625 C-3.66451799 57.56904261 -25.64534795 64.85597359 -43.97119141 68.70751953 C-78.59560649 75.37853156 -117.64232487 72.22046705 -147.48828125 52.26953125 C-154.69456781 46.9026872 -161.91323368 39.33524165 -163.58984375 30.20703125 C-164.34331816 22.57660783 -163.48358758 16.83129354 -159.58984375 10.20703125 C-159.20054687 9.54058594 -158.81125 8.87414062 -158.41015625 8.1875 C-148.04499494 -7.36024196 -127.0499191 -14.97557779 -109.57421875 -18.6640625 C-72.9648549 -25.96805836 -30.63161725 -23.4241779 0 0 Z " fill="#7579B0" transform="translate(165.58984375,23.79296875)"/>
<path d="M0 0 C3.96 0 7.92 0 12 0 C13.04973814 4.19895255 12.72795155 6.79405774 12 11 C13.41152344 11.14695312 13.41152344 11.14695312 14.8515625 11.296875 C27.85882353 12.85882353 27.85882353 12.85882353 33 18 C33.66 16.02 34.32 14.04 35 12 C39.16642697 11.88296553 43.3324259 11.81246899 47.5 11.75 C48.67304688 11.71648438 49.84609375 11.68296875 51.0546875 11.6484375 C58.2312316 11.56780217 62.92851993 12.0764492 69 16 C72.66984939 19.66984939 73.31335352 22.78485182 73.5625 27.8125 C73.32174808 33.88396247 71.98925126 38.35962957 68 43 C61.6300461 48.28784264 56.55785827 50.16258371 48.3125 50.0625 C47.2596582 50.05573242 47.2596582 50.05573242 46.18554688 50.04882812 C44.45699462 50.03706927 42.72848635 50.01913454 41 50 C41.04125 51.2375 41.0825 52.475 41.125 53.75 C41.24851563 57.455469 40.80568106 58.38863788 39 62 C34.71 62 30.42 62 26 62 C25.92670204 57.60212211 25.92603934 54.29584263 27 50 C23.04 50 19.08 50 15 50 C14.74331574 44.08824064 15.7043432 38.81854288 17 33.0625 C17.19078125 32.18787109 17.3815625 31.31324219 17.578125 30.41210938 C18.04562066 28.27331674 18.52191326 26.13645014 19 24 C15.37 24 11.74 24 8 24 C7.814375 26.0728125 7.814375 26.0728125 7.625 28.1875 C7.19250981 32.45148783 6.66662742 36.69433736 6.0625 40.9375 C5.83240234 42.55978516 5.83240234 42.55978516 5.59765625 44.21484375 C5 47 5 47 3 50 C0.1796875 50.29296875 0.1796875 50.29296875 -3.125 50.1875 C-4.76855469 50.14689453 -4.76855469 50.14689453 -6.4453125 50.10546875 C-7.28835937 50.07066406 -8.13140625 50.03585938 -9 50 C-9.82638376 47.10765685 -10 45.11257569 -10 42 C-10.42410156 42.40992188 -10.84820312 42.81984375 -11.28515625 43.2421875 C-19.15443343 50.47154544 -26.68949552 50.27908132 -37 50 C-37.06058594 50.78246094 -37.12117188 51.56492188 -37.18359375 52.37109375 C-37.26738281 53.38300781 -37.35117187 54.39492187 -37.4375 55.4375 C-37.51871094 56.44683594 -37.59992187 57.45617187 -37.68359375 58.49609375 C-38 61 -38 61 -39 62 C-41.18639453 62.07258946 -43.37500389 62.08373783 -45.5625 62.0625 C-47.35880859 62.04896484 -47.35880859 62.04896484 -49.19140625 62.03515625 C-50.11824219 62.02355469 -51.04507813 62.01195312 -52 62 C-53.12072923 57.85445526 -52.79760562 54.87025384 -51.890625 50.6953125 C-51.63176514 49.47811523 -51.37290527 48.26091797 -51.10620117 47.00683594 C-50.82365479 45.72583008 -50.5411084 44.44482422 -50.25 43.125 C-49.9668787 41.8104312 -49.68473463 40.49565156 -49.40356445 39.18066406 C-48.85285701 36.61037478 -48.29930628 34.04069276 -47.74267578 31.47167969 C-46.59690847 26.11572597 -45.56575972 20.73987539 -44.54296875 15.359375 C-44 13 -44 13 -43 12 C-39.00824136 11.68814386 -35.00241932 11.72134233 -31 11.6875 C-29.88753906 11.65849609 -28.77507813 11.62949219 -27.62890625 11.59960938 C-20.65853902 11.54624378 -14.93392938 12.10793306 -9 16 C-6.9375 18.25 -6.9375 18.25 -6 20 C-5.73445313 18.89140625 -5.46890625 17.7828125 -5.1953125 16.640625 C-4.83879379 15.17702189 -4.48200897 13.71348359 -4.125 12.25 C-3.95097656 11.52039062 -3.77695313 10.79078125 -3.59765625 10.0390625 C-3.42363281 9.33007812 -3.24960938 8.62109375 -3.0703125 7.890625 C-2.91320801 7.24125977 -2.75610352 6.59189453 -2.59423828 5.92285156 C-2 4 -2 4 0 0 Z " fill="#E3E3E7" transform="translate(81,14)"/>
<path d="M0 0 C3.83307169 -0.11719175 7.66567608 -0.18758077 11.5 -0.25 C12.57765625 -0.28351562 13.6553125 -0.31703125 14.765625 -0.3515625 C21.69699638 -0.43609142 26.11287845 0.2655292 32 4 C35.23728226 7.54077747 35.52118029 11.02650662 35.3515625 15.66015625 C34.40522923 21.95852989 30.93498382 27.07444469 26 31 C18.68234801 34.92985014 11.0735708 34.28383647 3 34 C2.93941406 34.78246094 2.87882812 35.56492188 2.81640625 36.37109375 C2.73261719 37.38300781 2.64882813 38.39492187 2.5625 39.4375 C2.48128906 40.44683594 2.40007813 41.45617187 2.31640625 42.49609375 C2 45 2 45 1 46 C-0.68608966 46.07205511 -2.37500659 46.08386068 -4.0625 46.0625 C-4.98160156 46.05347656 -5.90070312 46.04445312 -6.84765625 46.03515625 C-7.55792969 46.02355469 -8.26820312 46.01195312 -9 46 C-7.18030285 35.51085137 -5.29300074 25.03410376 -3.375 14.5625 C-3.15690674 13.35940186 -2.93881348 12.15630371 -2.71411133 10.91674805 C-2.50681396 9.79051025 -2.2995166 8.66427246 -2.0859375 7.50390625 C-1.9007959 6.49142822 -1.7156543 5.4789502 -1.52490234 4.43579102 C-1 2 -1 2 0 0 Z " fill="#080808" transform="translate(39,28)"/>
<path d="M0 0 C3.85402129 -0.08770383 7.70778291 -0.14062735 11.5625 -0.1875 C12.64853516 -0.21263672 13.73457031 -0.23777344 14.85351562 -0.26367188 C22.32324478 -0.33178491 27.56319898 0.0919376 33.4375 5.0625 C35.74057846 9.39228751 35.61737074 13.19655447 35 18 C33.21789757 23.6276919 30.54273172 29.05867367 25.16796875 32.00390625 C18.39524428 34.60493402 11.1758875 34.70398188 4 35 C3.34 38.63 2.68 42.26 2 46 C-1.3 46 -4.6 46 -8 46 C-7.36853993 36.06562123 -5.44544279 26.5381334 -3.4375 16.8125 C-3.10427641 15.17654245 -2.77159001 13.54047539 -2.43945312 11.90429688 C-1.63248503 7.93490914 -0.81827811 3.96707095 0 0 Z " fill="#060606" transform="translate(117,28)"/>
<path d="M0 0 C2.97 0 5.94 0 9 0 C8.67 3.96 8.34 7.92 8 12 C9.28583984 11.94779297 9.28583984 11.94779297 10.59765625 11.89453125 C17.20246952 11.73816025 22.22083756 11.66092837 28 15 C30 17 30 17 30.25 20.4375 C30.11603199 25.72923647 29.05589601 30.82753646 28 36 C27.71382812 37.44826172 27.71382812 37.44826172 27.421875 38.92578125 C26.95466333 41.28520017 26.47827279 43.64279837 26 46 C22.7 46 19.4 46 16 46 C16.51761382 39.96117207 17.27310426 34.21761592 18.6953125 28.32421875 C19.1870815 25.54047025 19.1870815 25.54047025 18 21 C14.04 20.67 10.08 20.34 6 20 C5.72285156 21.62550781 5.44570312 23.25101563 5.16015625 24.92578125 C4.79439341 27.05470856 4.42850128 29.18361367 4.0625 31.3125 C3.88009766 32.38435547 3.69769531 33.45621094 3.50976562 34.56054688 C3.33251953 35.58857422 3.15527344 36.61660156 2.97265625 37.67578125 C2.81031494 38.62364502 2.64797363 39.57150879 2.48071289 40.5480957 C2 43 2 43 1 46 C-2.3 46 -5.6 46 -9 46 C-7.68209432 36.91123079 -6.09662636 27.89648096 -4.34057617 18.88452148 C-3.93065189 16.77729713 -3.52667673 14.66898497 -3.12304688 12.56054688 C-2.86232981 11.21347375 -2.60127528 9.86646589 -2.33984375 8.51953125 C-2.10644287 7.31401611 -1.87304199 6.10850098 -1.63256836 4.86645508 C-1 2 -1 2 0 0 Z " fill="#060606" transform="translate(82,16)"/>
<path d="M0 0 C10.59145274 -0.55528005 10.59145274 -0.55528005 15 3 C15.33 3.33 15.66 3.66 16 4 C15.94921875 5.92578125 15.94921875 5.92578125 15.6875 8.3125 C15.56955078 9.48232422 15.56955078 9.48232422 15.44921875 10.67578125 C14.97230893 13.14327118 14.3421397 14.87722803 13 17 C7.60291384 20.08404923 3.13386604 20.37554282 -3 20 C-2.51358785 13.15182898 -1.64006048 6.66957927 0 0 Z " fill="#7D81B6" transform="translate(126,35)"/>
<path d="M0 0 C2.29141286 -0.05384521 4.58318188 -0.09272087 6.875 -0.125 C8.78925781 -0.15980469 8.78925781 -0.15980469 10.7421875 -0.1953125 C14 0 14 0 16 2 C16.6304182 6.16730995 16.40931573 9.95397091 14.875 13.875 C11.84010878 17.31454338 9.01368767 18.86154016 4.38671875 19.1796875 C1.91645011 19.18667553 -0.53353832 19.13160962 -3 19 C-2.68798326 16.95825942 -2.37536431 14.91661087 -2.0625 12.875 C-1.88847656 11.73804688 -1.71445312 10.60109375 -1.53515625 9.4296875 C-1.04410734 6.28267331 -0.52981281 3.14069217 0 0 Z " fill="#797DB4" transform="translate(47,36)"/>
<path d="M0 0 C1.11246094 -0.02900391 2.22492187 -0.05800781 3.37109375 -0.08789062 C11.28261888 -0.14846178 18.24110995 0.66416554 24.125 6.375 C25 8.3125 25 8.3125 24 11.3125 C23.484375 10.549375 22.96875 9.78625 22.4375 9 C18.00003587 4.10741134 13.44917529 3.17141301 7.06640625 2.80078125 C4.89885702 2.72831 2.7307927 2.67003872 0.5625 2.625 C-1.1071582 2.57375977 -1.1071582 2.57375977 -2.81054688 2.52148438 C-5.54026383 2.43947571 -8.2696786 2.37017163 -11 2.3125 C-11.13575439 3.10720703 -11.27150879 3.90191406 -11.41137695 4.72070312 C-16.40223169 33.90125708 -16.40223169 33.90125708 -19 47.3125 C-16.03 47.3125 -13.06 47.3125 -10 47.3125 C-9.67 45.0025 -9.34 42.6925 -9 40.3125 C-8.67 40.3125 -8.34 40.3125 -8 40.3125 C-7.80587819 41.79081221 -7.61987869 43.27019316 -7.4375 44.75 C-7.33308594 45.57371094 -7.22867188 46.39742187 -7.12109375 47.24609375 C-7.08113281 47.92800781 -7.04117188 48.60992187 -7 49.3125 C-8 50.3125 -8 50.3125 -10.94140625 50.41015625 C-12.13636719 50.39855469 -13.33132812 50.38695312 -14.5625 50.375 C-16.35880859 50.36146484 -16.35880859 50.36146484 -18.19140625 50.34765625 C-19.11824219 50.33605469 -20.04507812 50.32445312 -21 50.3125 C-22.12072923 46.16695526 -21.79760562 43.18275384 -20.890625 39.0078125 C-20.63176514 37.79061523 -20.37290527 36.57341797 -20.10620117 35.31933594 C-19.82365479 34.03833008 -19.5411084 32.75732422 -19.25 31.4375 C-18.9668787 30.1229312 -18.68473463 28.80815156 -18.40356445 27.49316406 C-17.85285701 24.92287478 -17.29930628 22.35319276 -16.74267578 19.78417969 C-15.59690847 14.42822597 -14.56575972 9.05237539 -13.54296875 3.671875 C-12.2312185 -2.02810451 -4.82669528 0.04081197 0 0 Z " fill="#E6E7EE" transform="translate(50,25.6875)"/>
<path d="M0 0 C4.16642697 -0.11703447 8.3324259 -0.18753101 12.5 -0.25 C13.67304688 -0.28351562 14.84609375 -0.31703125 16.0546875 -0.3515625 C23.2312316 -0.43219783 27.92851993 0.0764492 34 4 C37.66984939 7.66984939 38.31335352 10.78485182 38.5625 15.8125 C38.32174808 21.88396247 36.98925126 26.35962957 33 31 C26.6300461 36.28784264 21.55785827 38.16258371 13.3125 38.0625 C12.61060547 38.05798828 11.90871094 38.05347656 11.18554688 38.04882812 C9.45699462 38.03706927 7.72848635 38.01913454 6 38 C5.67 39.32 5.34 40.64 5 42 C5 40.02 5 38.04 5 36 C6.35931641 35.94392578 6.35931641 35.94392578 7.74609375 35.88671875 C19.72986764 35.68104883 19.72986764 35.68104883 29.84375 30.1640625 C34.81666295 23.85409277 35.9174421 17.97270108 35 10 C33.2295343 6.73144794 31.98468716 5.45023525 28.625 3.9140625 C23.32160639 2.57678437 18.07539814 2.52907486 12.625 2.375 C10.94857422 2.31699219 10.94857422 2.31699219 9.23828125 2.2578125 C6.49234839 2.16393445 3.74641524 2.07825089 1 2 C0.67 4.64 0.34 7.28 0 10 C-0.33 10 -0.66 10 -1 10 C-1.125 3.375 -1.125 3.375 0 0 Z " fill="#E8E8EF" transform="translate(116,26)"/>
<path d="M0 0 C2.29141286 -0.05384521 4.58318188 -0.09272087 6.875 -0.125 C8.78925781 -0.15980469 8.78925781 -0.15980469 10.7421875 -0.1953125 C14 0 14 0 16 2 C16.6304182 6.16730995 16.40931573 9.95397091 14.875 13.875 C11.84010878 17.31454338 9.01368767 18.86154016 4.38671875 19.1796875 C1.91645011 19.18667553 -0.53353832 19.13160962 -3 19 C-2.68798326 16.95825942 -2.37536431 14.91661087 -2.0625 12.875 C-1.88847656 11.73804688 -1.71445312 10.60109375 -1.53515625 9.4296875 C-1.04410734 6.28267331 -0.52981281 3.14069217 0 0 Z M2 2 C0.73694665 7.07476794 -0.27036084 11.72796354 0 17 C5.80357822 17.48550496 5.80357822 17.48550496 10.9375 15.125 C13.70248229 12.27623037 14.13900209 10.79507492 14.125 6.9375 C14.45679375 3.22868902 14.45679375 3.22868902 13 2 C11.14712498 1.92773498 9.29166122 1.9161878 7.4375 1.9375 C6.42558594 1.94652344 5.41367187 1.95554688 4.37109375 1.96484375 C3.58863281 1.97644531 2.80617188 1.98804688 2 2 Z " fill="#E4E4E7" transform="translate(47,36)"/>
<path d="M0 0 C10.59145274 -0.55528005 10.59145274 -0.55528005 15 3 C15.33 3.33 15.66 3.66 16 4 C15.94921875 5.92578125 15.94921875 5.92578125 15.6875 8.3125 C15.56955078 9.48232422 15.56955078 9.48232422 15.44921875 10.67578125 C14.97230893 13.14327118 14.3421397 14.87722803 13 17 C7.60291384 20.08404923 3.13386604 20.37554282 -3 20 C-2.51358785 13.15182898 -1.64006048 6.66957927 0 0 Z M2 2 C0.29915181 7.32932432 -0.52013969 12.43109483 -1 18 C4.20695956 18.31241757 7.62483347 17.95069371 12 15 C14.16368502 11.3610752 14.19403175 8.17168256 14 4 C10.09971775 1.39981184 6.52565431 1.84914486 2 2 Z " fill="#E4E4E7" transform="translate(126,35)"/>
<path d="M0 0 C1.95803507 -0.05389087 3.91648909 -0.09274217 5.875 -0.125 C7.51082031 -0.15980469 7.51082031 -0.15980469 9.1796875 -0.1953125 C12 0 12 0 14 2 C13.9765625 4.1640625 13.9765625 4.1640625 13.625 6.625 C13.45871094 7.85089844 13.45871094 7.85089844 13.2890625 9.1015625 C13.14597656 10.04128906 13.14597656 10.04128906 13 11 C11 8 11 8 11.375 4.8125 C11.58125 3.884375 11.7875 2.95625 12 2 C8.37 2 4.74 2 1 2 C0.87625 3.381875 0.7525 4.76375 0.625 6.1875 C0.00036192 12.49724992 -0.98973225 18.74222498 -2 25 C-2.33 25 -2.66 25 -3 25 C-4.91009239 16.08623551 -2.44757188 8.56124927 0 0 Z " fill="#D7D7DE" transform="translate(88,36)"/>
<path d="M0 0 C2.61685722 3.92528583 1.83515128 5.44462938 1 10 C0.814375 11.299375 0.62875 12.59875 0.4375 13.9375 C0.293125 14.948125 0.14875 15.95875 0 17 C2.97 17 5.94 17 9 17 C9.33 14.69 9.66 12.38 10 10 C10.33 10 10.66 10 11 10 C11.19412181 11.47831221 11.38012131 12.95769316 11.5625 14.4375 C11.66691406 15.26121094 11.77132812 16.08492187 11.87890625 16.93359375 C11.91886719 17.61550781 11.95882812 18.29742187 12 19 C11 20 11 20 8.05859375 20.09765625 C6.86363281 20.08605469 5.66867188 20.07445313 4.4375 20.0625 C2.64119141 20.04896484 2.64119141 20.04896484 0.80859375 20.03515625 C-0.11824219 20.02355469 -1.04507812 20.01195313 -2 20 C-3.32675617 15.47497068 -2.57249199 11.67874099 -1.5625 7.1875 C-1.41490234 6.49462891 -1.26730469 5.80175781 -1.11523438 5.08789062 C-0.75224388 3.39003185 -0.37731777 1.69473237 0 0 Z " fill="#E1E2E9" transform="translate(31,56)"/>
<path d="M0 0 C0.33 0 0.66 0 1 0 C1.23438667 6.32844017 0.37470522 11.81382652 -1 18 C2.3 18 5.6 18 9 18 C9.33 18.66 9.66 19.32 10 20 C5.71 20 1.42 20 -3 20 C-3.48452463 13.05514697 -1.69287491 6.7009632 0 0 Z " fill="#EAEAED" transform="translate(99,44)"/>
<path d="M0 0 C0.66 0.33 1.32 0.66 2 1 C-3.88295513 5.05270242 -7.63924859 6.14805301 -14.6875 6.0625 C-15.38939453 6.05798828 -16.09128906 6.05347656 -16.81445312 6.04882812 C-18.54300538 6.03706927 -20.27151365 6.01913454 -22 6 C-22.33 7.32 -22.66 8.64 -23 10 C-23 8.02 -23 6.04 -23 4 C-22.09378906 3.96261719 -21.18757813 3.92523438 -20.25390625 3.88671875 C-12.91212916 3.49049586 -6.8822443 2.52348958 0 0 Z " fill="#EBEBEF" transform="translate(144,58)"/>
<path d="M0 0 C5.61 0 11.22 0 17 0 C15 2 15 2 11.9609375 2.1953125 C10.77757812 2.17210938 9.59421875 2.14890625 8.375 2.125 C7.18648437 2.10695313 5.99796875 2.08890625 4.7734375 2.0703125 C3.85820313 2.04710938 2.94296875 2.02390625 2 2 C1.67 4.31 1.34 6.62 1 9 C0.67 9 0.34 9 0 9 C0 6.03 0 3.06 0 0 Z " fill="#EDEDF1" transform="translate(42,62)"/>
<path d="M0 0 C0.33 0 0.66 0 1 0 C1.04241723 2.33294775 1.04092937 4.66702567 1 7 C0 8 0 8 -2.72265625 8.09765625 C-4.37587891 8.08025391 -4.37587891 8.08025391 -6.0625 8.0625 C-7.71958984 8.04896484 -7.71958984 8.04896484 -9.41015625 8.03515625 C-10.26480469 8.02355469 -11.11945313 8.01195313 -12 8 C-12.625 6.125 -12.625 6.125 -13 4 C-12.34 3.34 -11.68 2.68 -11 2 C-11 3.32 -11 4.64 -11 6 C-7.7 6 -4.4 6 -1 6 C-0.67 4.02 -0.34 2.04 0 0 Z " fill="#F1F1F4" transform="translate(84,56)"/>
<path d="M0 0 C0.33 0 0.66 0 1 0 C2.56111214 6.5381231 1.87343011 10.39636802 -1.578125 16.15234375 C-3 18 -3 18 -6 20 C-6 17 -6 17 -4.125 14.5 C-1.05152248 10.20585056 -0.69221821 5.11877148 0 0 Z " fill="#E3E3E9" transform="translate(152,39)"/>
<path d="M0 0 C0.99 0 1.98 0 3 0 C2.34 4.29 1.68 8.58 1 13 C0.34 12.67 -0.32 12.34 -1 12 C-1 10.68 -1 9.36 -1 8 C-1.66 7.67 -2.32 7.34 -3 7 C-2.01 4.69 -1.02 2.38 0 0 Z " fill="#E3E3E3" transform="translate(73,46)"/>
<path d="M0 0 C0.33 0 0.66 0 1 0 C1.44811859 8.81299886 1.44811859 8.81299886 -2 13 C-4.1875 14.3125 -4.1875 14.3125 -6 15 C-6.33 14.34 -6.66 13.68 -7 13 C-6.21625 12.34 -5.4325 11.68 -4.625 11 C-1.3549438 7.26279291 -0.89790231 4.81602145 0 0 Z " fill="#E9E9ED" transform="translate(62,39)"/>
<path d="M0 0 C4.09885218 -0.47661072 5.55930365 -0.3448928 8.875 2.25 C11 5 11 5 11 9 C10.2265625 7.8553125 10.2265625 7.8553125 9.4375 6.6875 C6.44152356 3.38424393 4.14287486 2.51374274 0 1 C0 0.67 0 0.34 0 0 Z " fill="#E1E1E6" transform="translate(63,28)"/>
<path d="M0 0 C0.33 0 0.66 0 1 0 C1.33 2.97 1.66 5.94 2 9 C-0.72842061 10.36421031 -2.60953318 9.87807211 -5.625 9.5625 C-6.62789062 9.46066406 -7.63078125 9.35882813 -8.6640625 9.25390625 C-9.43492188 9.17011719 -10.20578125 9.08632812 -11 9 C-11 8.67 -11 8.34 -11 8 C-7.7 7.67 -4.4 7.34 -1 7 C-0.67 4.69 -0.34 2.38 0 0 Z " fill="#BCBCC3" transform="translate(41,66)"/>
<path d="M0 0 C1.60379341 -0.05416188 3.20811406 -0.09286638 4.8125 -0.125 C5.70582031 -0.14820313 6.59914062 -0.17140625 7.51953125 -0.1953125 C10 0 10 0 13 2 C10.11788698 2.96070434 8.30149956 3.10581883 5.3125 3.0625 C4.10013672 3.04896484 4.10013672 3.04896484 2.86328125 3.03515625 C1.94095703 3.01775391 1.94095703 3.01775391 1 3 C0.67 2.01 0.34 1.02 0 0 Z " fill="#C8C8C9" transform="translate(126,35)"/>
<path d="M0 0 C0.99 0 1.98 0 3 0 C2.67 3.3 2.34 6.6 2 10 C1.34 10 0.68 10 0 10 C0 6.7 0 3.4 0 0 Z " fill="#F9F9FB" transform="translate(74,36)"/>
<path d="M0 0 C-0.33 1.98 -0.66 3.96 -1 6 C-1.33 6 -1.66 6 -2 6 C-2.33 4.35 -2.66 2.7 -3 1 C-6.63 0.67 -10.26 0.34 -14 0 C-14 -0.33 -14 -0.66 -14 -1 C-12.41870971 -1.22331199 -10.83478911 -1.42804644 -9.25 -1.625 C-8.36828125 -1.74101563 -7.4865625 -1.85703125 -6.578125 -1.9765625 C-3.77140122 -2.00207817 -2.36615134 -1.44843844 0 0 Z " fill="#C7C9DB" transform="translate(63,38)"/>
<path d="M0 0 C0.33 0 0.66 0 1 0 C1.2226746 1.43534841 1.42761906 2.87345525 1.625 4.3125 C1.74101563 5.11300781 1.85703125 5.91351563 1.9765625 6.73828125 C2 9 2 9 0 12 C-0.76173392 7.6835078 -1.16063604 4.25566547 0 0 Z " fill="#BFC0CA" transform="translate(120,63)"/>
<path d="M0 0 C0.33 0 0.66 0 1 0 C1.22174933 1.45635371 1.42698698 2.91522956 1.625 4.375 C1.74101562 5.18710937 1.85703125 5.99921875 1.9765625 6.8359375 C1.98429688 7.55007812 1.99203125 8.26421875 2 9 C1.34 9.66 0.68 10.32 0 11 C-1.37432457 7.18243176 -0.67975039 3.92744671 0 0 Z " fill="#CFCFD4" transform="translate(152,39)"/>
<path d="M0 0 C0.66 0 1.32 0 2 0 C1.67 3.3 1.34 6.6 1 10 C0.67 10 0.34 10 0 10 C-0.19412181 8.52168779 -0.38012131 7.04230684 -0.5625 5.5625 C-0.66691406 4.73878906 -0.77132812 3.91507813 -0.87890625 3.06640625 C-0.91886719 2.38449219 -0.95882812 1.70257812 -1 1 C-0.67 0.67 -0.34 0.34 0 0 Z " fill="#C6C7D5" transform="translate(92,15)"/>
</svg>
